<svg width="24" height="24" xmlns="http://www.w3.org/2000/svg"><g fill="none" fill-rule="evenodd"><path d="M21.533 10.165V12a9.53 9.53 0 0 1-3.822 7.634l-3.158-2.34-.013-.006a5.876 5.876 0 0 0 2.975-3.285l.059-.17H12v-3.667h9.532z" fill="#4285F4"/><path d="M6.224 13.147c.027.095.056.189.087.282a5.868 5.868 0 0 0 9.155 3.304l2.88 2.38a9.534 9.534 0 0 1-15.154-3.465l-.018-.051 3.05-2.45z" fill="#34A853"/><path d="m3.696 7.318 3.07 2.032a5.865 5.865 0 0 0 .021 5.34l-3.083 2.005a9.53 9.53 0 0 1-.008-9.378z" fill="#FBBC05"/><path d="m18.567 5.09.174.169-2.593 2.592a5.867 5.867 0 0 0-9.7 2.254l-3.009-2.3A9.533 9.533 0 0 1 18.567 5.09z" fill="#EA4335"/></g></svg>